<svg width="47" height="45" viewBox="0 0 47 45" fill="none" xmlns="http://www.w3.org/2000/svg">
<g id="Black">
<path id="Vector" d="M21.3359 0.315176C19.9753 0.763538 18.5066 1.79941 17.9345 2.71159C17.6253 3.2218 17.5944 3.23726 16.3421 3.2991C14.0539 3.43825 12.2295 4.6751 11.24 6.79323C10.8071 7.70541 10.7453 7.99916 10.7453 9.14326C10.7453 10.0091 10.838 10.7512 11.0236 11.3078L11.3019 12.1736L10.7607 12.993C8.5344 16.2861 9.87948 20.5842 13.6055 22.1612C14.4249 22.5013 14.6259 22.5013 18.8622 22.5168C22.6501 22.5168 23.3922 22.4704 24.1343 22.2385C25.4484 21.8211 26.5152 21.079 27.5666 19.8266L27.984 19.3164L28.9735 20.3368C30.1485 21.5582 31.4936 22.254 33.0551 22.455C34.5084 22.6405 40.0743 22.625 41.2802 22.424C43.2438 22.1148 44.9135 20.8316 45.8566 18.9299C46.2586 18.1259 46.305 17.8786 46.2895 16.4871C46.2895 15.142 46.2431 14.8328 45.8875 14.0752C45.6711 13.6114 45.3 13.0084 45.0681 12.7302L44.6507 12.2354L44.9599 11.2768C45.4237 9.83899 45.4856 9.22056 45.3 8.24654C44.8053 5.85012 43.1974 4.07214 40.8937 3.39186C40.6464 3.33002 40.0125 3.25272 39.4868 3.25272L38.5592 3.23726L37.6779 2.26323C37.044 1.55204 36.5029 1.1346 35.7608 0.763538C34.7713 0.284256 34.6167 0.253334 33.0861 0.253334C31.6018 0.253334 31.3854 0.299717 30.5505 0.717155C30.0403 0.964527 29.2673 1.53658 28.8189 1.98494L27.9995 2.81982L27.2728 2.03132C26.8399 1.5675 26.1442 1.05729 25.5412 0.763538C24.6599 0.330637 24.3507 0.253334 23.1293 0.222412C22.3563 0.206951 21.5523 0.237873 21.3359 0.315176ZM24.1961 2.30961C25.232 2.66521 26.0205 3.33002 26.5462 4.27313L26.9791 5.04616V10.9985V16.9509L26.5152 17.8631C25.9896 18.8681 25.1547 19.6875 24.1188 20.1822C23.4695 20.476 23.1293 20.5069 19.3724 20.5533C14.8269 20.6151 14.1466 20.5069 13.0953 19.6566C12.7861 19.3937 12.3377 18.8371 12.0904 18.4506C11.7348 17.8167 11.6729 17.5539 11.6729 16.4871C11.6729 15.0647 11.9976 14.3071 12.8943 13.5032C14.2394 12.3282 16.2802 12.5755 17.4862 14.0907C18.0891 14.8328 18.4447 14.972 18.9395 14.6473C19.3878 14.3535 19.527 13.9361 19.3415 13.4568C19.1095 12.8384 17.9191 11.7561 17.0069 11.3232C16.2648 10.9676 15.9556 10.9212 14.5795 10.9212L13.0026 10.9367L12.8016 10.4729C12.5078 9.76169 12.5851 8.55575 12.9871 7.64357C13.5437 6.3294 14.8424 5.35538 16.1875 5.24715L16.7441 5.20077L16.775 6.23664C16.8059 7.50442 17.1151 8.06101 17.7799 8.06101C18.5066 8.06101 18.7076 7.72087 18.7076 6.49947C18.7076 4.9534 19.3724 3.70108 20.7329 2.68067C21.0267 2.46422 22.5109 2.04678 23.0366 2.04678C23.253 2.04678 23.7787 2.155 24.1961 2.30961ZM34.864 2.47968C35.6371 2.83528 36.5029 3.67016 36.8739 4.4432C37.0595 4.82971 37.1986 5.49452 37.2295 6.28302C37.2914 7.65903 37.5078 8.06101 38.1726 8.06101C38.9766 8.06101 39.2703 7.5508 39.2703 6.11296V5.07709L39.9042 5.18531C42.1615 5.54091 43.6612 7.5508 43.3829 9.80807C43.3211 10.2564 43.2283 10.6893 43.1665 10.7821C43.1046 10.8749 42.4089 10.9367 41.4349 10.9367C39.6723 10.9212 38.9148 11.1686 37.848 12.0499C37.2605 12.5446 36.4874 13.596 36.4874 13.8897C36.4874 14.1835 37.1831 14.8637 37.4924 14.8637C37.6315 14.8637 38.1263 14.4772 38.5901 14.0134C39.9042 12.6992 41.2029 12.4209 42.6872 13.1631C44.6198 14.1525 44.9754 17.5384 43.3211 19.2391C42.146 20.4605 41.9914 20.5069 37.647 20.5533C32.3594 20.6306 31.6327 20.4605 30.1794 18.8062C29.0353 17.5075 28.989 17.2292 28.989 11.0759C28.989 4.98432 29.0353 4.62872 30.0094 3.51555C31.2462 2.12408 33.1479 1.70664 34.864 2.47968Z" fill="#5FD5EC"/>
<path id="Vector_2" d="M22.4955 5.30854C22.0316 5.57137 21.9543 5.74144 21.9543 6.68454C21.9543 7.65857 22.2326 8.06055 22.9129 8.06055C23.5159 8.06055 23.8096 7.61219 23.8096 6.65362C23.8096 5.72598 23.7323 5.55591 23.2376 5.29307C22.8356 5.09208 22.882 5.09208 22.4955 5.30854Z" fill="#5FD5EC"/>
<path id="Vector_3" d="M22.2172 14.214C22.0781 14.3531 21.908 14.786 21.8152 15.1571C21.6297 16.0229 21.1504 16.5176 20.2073 16.7959C19.2642 17.0742 19.0168 17.2752 19.0168 17.7545C19.0168 18.4966 19.2797 18.7285 20.1146 18.7285C21.0422 18.7285 21.707 18.4657 22.4801 17.8009C23.6396 16.7805 24.2117 14.8015 23.5314 14.1985C23.1603 13.8584 22.5264 13.8584 22.2172 14.214Z" fill="#5FD5EC"/>
<path id="Vector_4" d="M32.545 5.50952C32.2358 5.80328 32.1584 6.03519 32.1584 6.6227C32.1584 7.55034 32.4831 8.06055 33.0706 8.06055C33.8437 8.06055 34.091 7.73587 34.091 6.66908C34.091 5.84966 34.0292 5.66413 33.72 5.41676C33.2407 5.03024 32.9933 5.0457 32.545 5.50952Z" fill="#5FD5EC"/>
<path id="Vector_5" d="M32.4676 14.245C32.112 14.6006 32.0965 14.8016 32.3284 15.7911C32.684 17.3835 34.0291 18.5585 35.637 18.6977C36.5492 18.7595 36.6265 18.7441 36.8739 18.3575C37.3841 17.5845 37.0285 17.1207 35.6061 16.7342C34.8331 16.5177 34.261 15.8529 34.1064 14.9871C34.0446 14.6624 33.8899 14.3068 33.7663 14.1677C33.4416 13.843 32.8386 13.8739 32.4676 14.245Z" fill="#5FD5EC"/>
<path id="Vector_6" d="M10.9771 26.8765C9.70934 26.9693 7.97774 27.4177 6.84911 27.9279C6.23068 28.2216 4.46815 29.1956 2.93754 30.1078C0.803958 31.3911 0.123686 31.8704 0.0463822 32.1641C-0.061843 32.6125 0.123686 32.9526 0.649351 33.2464C1.02041 33.4628 1.15956 33.401 3.64873 31.9167C8.98269 28.7318 9.5702 28.5772 15.0588 28.9174C18.3674 29.1338 18.893 29.2884 19.496 30.2779C20.2381 31.4529 19.8361 32.9371 18.5993 33.6483C17.9654 34.0349 17.9035 34.0349 14.3321 34.0349C11.0235 34.0349 10.6988 34.0658 10.4669 34.3132C10.0959 34.7151 10.1422 35.3645 10.5442 35.6428C10.838 35.8592 11.4873 35.8901 14.6877 35.8747C17.1923 35.8747 18.6302 35.8128 18.9394 35.6892C19.2022 35.5809 20.7947 34.6687 22.4954 33.6638C24.1961 32.6434 26.4997 31.2828 27.5974 30.618C29.9938 29.1956 30.5968 28.9947 31.4935 29.2266C33.1014 29.6595 33.9672 31.3447 33.3797 32.9062C33.0551 33.7875 33.086 33.7566 24.5053 38.8277C23.825 39.2297 22.6036 39.9563 21.7996 40.4356C18.9703 42.1208 17.7025 42.6774 15.94 42.9557L14.3476 43.2185L9.67842 42.4764C7.1274 42.0744 4.26716 41.6106 3.33952 41.4406C2.41188 41.2859 1.39147 41.1468 1.08225 41.1468C0.448361 41.1468 0 41.5179 0 42.0126C0 42.7702 0.494744 42.9866 3.24676 43.3886C4.77737 43.6205 7.2047 44.007 11.5956 44.7337C14.3012 45.1666 16.4348 45.0738 18.2437 44.4399C19.9134 43.8524 20.099 43.7287 25.5875 40.4511C27.0408 39.5853 29.4218 38.1629 30.906 37.2816C34.06 35.4109 34.4774 35.0707 35.0495 33.9112C35.9462 32.1023 35.4669 29.6749 33.9827 28.4071C33.0551 27.6032 32.3748 27.3404 31.0761 27.2631C29.9938 27.2012 29.8238 27.2321 28.9116 27.696C28.355 27.9742 27.0718 28.7009 26.0513 29.3193C23.6395 30.7726 22.0006 31.7157 21.8924 31.7157C21.846 31.7157 21.7996 31.4838 21.7996 31.2055C21.7842 30.0151 21.0111 28.7164 19.8671 27.9279C18.9239 27.2785 18.0891 27.1394 14.6104 27.0002C13.2499 26.9384 12.0285 26.8765 11.9048 26.8611C11.7811 26.8456 11.3636 26.8456 10.9771 26.8765Z" fill="#5FD5EC"/>
</g>
</svg>
