<svg width="40" height="40" viewBox="0 0 40 40" fill="none" xmlns="http://www.w3.org/2000/svg">
<g clip-path="url(#clip0_7146_2938)">
<path d="M25.6663 14.7049V6.73826C25.6663 6.05148 25.531 5.37141 25.268 4.73696C25.005 4.10249 24.6195 3.52609 24.1337 3.04069C23.6478 2.55528 23.071 2.17039 22.4363 1.90803C21.8017 1.64565 21.1215 1.51094 20.4347 1.5116H6.05967C4.67347 1.5116 3.34406 2.06226 2.36386 3.04246C1.38367 4.02264 0.833008 5.35208 0.833008 6.73826V14.5716C0.83279 15.2581 0.96782 15.9379 1.23039 16.5723C1.49295 17.2066 1.87791 17.783 2.36327 18.2685C2.84864 18.754 3.42489 19.1391 4.05912 19.402C4.69337 19.6646 5.37316 19.8 6.05967 19.8V26.3333L12.5947 19.8H18.6497" stroke="#5FD5EC" stroke-width="2" stroke-linecap="round" stroke-linejoin="round"/>
<path d="M6.71289 11.2917C6.36771 11.2917 6.08789 11.0119 6.08789 10.6667C6.08789 10.3216 6.36771 10.0417 6.71289 10.0417" stroke="#5FD5EC" stroke-width="2"/>
<path d="M6.71289 11.2917C7.05807 11.2917 7.33789 11.0119 7.33789 10.6667C7.33789 10.3216 7.05807 10.0417 6.71289 10.0417" stroke="#5FD5EC" stroke-width="2"/>
<path d="M13.248 11.2917C12.9029 11.2917 12.623 11.0119 12.623 10.6667C12.623 10.3216 12.9029 10.0417 13.248 10.0417" stroke="#5FD5EC" stroke-width="2"/>
<path d="M13.248 11.2917C13.5932 11.2917 13.873 11.0119 13.873 10.6667C13.873 10.3216 13.5932 10.0417 13.248 10.0417" stroke="#5FD5EC" stroke-width="2"/>
<path d="M19.7834 11.2917C19.4383 11.2917 19.1584 11.0119 19.1584 10.6667C19.1584 10.3216 19.4383 10.0417 19.7834 10.0417" stroke="#5FD5EC" stroke-width="2"/>
<path d="M19.7834 11.2917C20.1286 11.2917 20.4084 11.0119 20.4084 10.6667C20.4084 10.3216 20.1286 10.0417 19.7834 10.0417" stroke="#5FD5EC" stroke-width="2"/>
<path d="M21.1904 34.8934H20.4704C19.7074 34.8934 18.9757 34.5902 18.4362 34.0507C17.8967 33.5114 17.5938 32.7795 17.5938 32.0167V29.14C17.5938 28.7623 17.6683 28.3884 17.8128 28.0394C17.9574 27.6905 18.1692 27.3735 18.4364 27.1065C18.7036 26.8395 19.0208 26.6277 19.3698 26.4833C19.7188 26.339 20.0927 26.2647 20.4704 26.265H21.1904C21.3809 26.265 21.5636 26.3407 21.6984 26.4753C21.8331 26.61 21.9088 26.7929 21.9088 26.9834V34.175C21.9088 34.3655 21.8331 34.5482 21.6984 34.6828C21.5636 34.8177 21.3809 34.8934 21.1904 34.8934Z" stroke="#5FD5EC" stroke-width="2" stroke-linecap="round" stroke-linejoin="round"/>
<path d="M36.2899 34.8934H35.5716C35.4771 34.8935 35.3836 34.8752 35.2962 34.8392C35.2089 34.8032 35.1294 34.7502 35.0626 34.6835C34.9957 34.6169 34.9426 34.5375 34.9064 34.4502C34.8702 34.363 34.8516 34.2695 34.8516 34.175V26.9834C34.8516 26.8889 34.8702 26.7954 34.9064 26.708C34.9426 26.6207 34.9957 26.5415 35.0626 26.4749C35.1294 26.408 35.2089 26.3552 35.2962 26.3192C35.3836 26.2832 35.4771 26.2647 35.5716 26.265H36.2899C36.6676 26.2647 37.0416 26.339 37.3906 26.4834C37.7396 26.6277 38.0567 26.8395 38.3239 27.1065C38.5911 27.3735 38.8029 27.6905 38.9476 28.0394C39.0921 28.3884 39.1666 28.7624 39.1666 29.14V32.0167C39.1666 32.7795 38.8636 33.5114 38.3241 34.0507C37.7846 34.5902 37.0529 34.8934 36.2899 34.8934Z" stroke="#5FD5EC" stroke-width="2" stroke-linecap="round" stroke-linejoin="round"/>
<path d="M20.4697 26.265C20.4697 24.1671 21.3031 22.1551 22.7866 20.6718C24.2699 19.1883 26.2819 18.355 28.3797 18.355C29.4186 18.355 30.4471 18.5596 31.4067 18.9571C32.3664 19.3546 33.2384 19.9373 33.9729 20.6718C34.7074 21.4063 35.2901 22.2783 35.6876 23.238C36.0851 24.1976 36.2897 25.2261 36.2897 26.265" stroke="#5FD5EC" stroke-width="2" stroke-linecap="round" stroke-linejoin="round"/>
<path d="M31.2566 38.4883H33.4133C33.7909 38.4884 34.1649 38.4143 34.5139 38.2699C34.8629 38.1254 35.1801 37.9138 35.4473 37.6468C35.7144 37.3798 35.9263 37.0628 36.0709 36.7138C36.2154 36.3649 36.2899 35.9909 36.2899 35.6133" stroke="#5FD5EC" stroke-width="2" stroke-linecap="round" stroke-linejoin="round"/>
</g>
<defs>
<clipPath id="clip0_7146_2938">
<rect width="40" height="40" fill="white"/>
</clipPath>
</defs>
</svg>
