<svg width="59" height="62" viewBox="0 0 59 62" fill="none" xmlns="http://www.w3.org/2000/svg">
<path d="M34.3146 28.5192C33.7835 28.7159 31.8755 29.601 30.1053 30.4665L26.8794 32.0598L26.368 31.7057C25.4829 31.0959 24.4207 30.8599 22.9455 30.9386C21.7063 31.0173 20.8802 31.2926 16.4545 33.0629L11.3994 35.0889L10.9077 34.5578C9.86517 33.417 9.13739 33.2596 4.7904 33.2596C0.915473 33.2596 0.836794 33.2596 0.423731 33.712C-0.127019 34.3021 -0.127019 34.8528 0.443401 35.3839C0.876134 35.797 1.07283 35.8167 4.77073 35.8167C8.56697 35.8167 8.62598 35.8167 9.17673 36.2887L9.72748 36.7608L9.78649 45.4351L9.8455 54.0898L9.25541 54.7389L8.68499 55.388L4.61337 55.4863C0.876134 55.5847 0.52208 55.624 0.266374 55.9584C-0.146689 56.5288 -0.0680103 57.1976 0.423731 57.532C0.797455 57.7877 1.56457 57.8467 4.90842 57.8467C8.40962 57.8467 9.03905 57.7877 9.72748 57.473C10.6913 57.0206 11.4781 56.2141 11.8911 55.2306L12.1862 54.5028H13.9368H15.6874L19.8377 57.6893C24.9518 61.6233 24.9715 61.6429 26.2893 61.5053C27.5285 61.3872 27.5285 61.4069 32.4656 57.355L36.3209 54.1881L42.0054 53.067C45.1329 52.4375 47.749 51.9458 47.808 51.9458C47.8866 51.9458 47.9653 52.6342 48.0047 53.48C48.103 55.2896 48.6341 56.3125 49.9913 57.1976C50.7977 57.7483 50.8568 57.7483 54.4956 57.8074C58.0165 57.8664 58.1935 57.8664 58.5869 57.473C58.823 57.2369 59 56.8435 59 56.5878C59 55.7027 58.5869 55.5847 54.9481 55.4863C51.5452 55.388 51.5255 55.388 50.9944 54.8372L50.4437 54.3062L50.3847 45.8482C50.3257 36.6231 50.3453 36.4264 51.4468 36.0134C51.7222 35.8953 53.3351 35.8167 55.0464 35.8167C58.0362 35.8167 58.1542 35.797 58.5673 35.3643C59.1377 34.7742 59.118 34.2234 58.5279 33.6727C58.0559 33.2399 57.9575 33.2203 54.2399 33.2793L50.4437 33.3186L47.5916 32.1974C36.3602 27.7324 36.4192 27.7521 34.3146 28.5192ZM40.2155 31.8827C41.6317 32.4532 44.0117 33.3973 45.5263 34.0071C47.0408 34.5971 48.339 35.1479 48.4374 35.2266C48.5161 35.2856 48.4571 35.679 48.28 36.0724C48.044 36.6625 47.985 37.882 47.985 43.0748V49.3887L47.5523 49.4871C47.2966 49.5264 46.3917 49.7035 45.5263 49.8608C44.6608 50.0378 43.3429 50.2935 42.5758 50.4509C40.4515 50.923 40.4318 50.923 40.9236 49.9788C41.4743 48.9167 41.376 47.3431 40.6875 46.3596C40.4318 45.9859 39.1336 44.491 37.8158 43.0158C36.4782 41.5602 35.3964 40.3013 35.3964 40.262C35.3964 40.203 35.9668 39.8883 36.6553 39.5736C38.1305 38.9048 38.4845 38.4327 38.1108 37.6263C37.6584 36.6625 36.8323 36.8001 33.1934 38.3541C29.6529 39.8883 28.9644 40.0063 27.9023 39.2982C26.2697 38.2164 26.1123 36.033 27.5679 34.7152C28.0006 34.3021 33.4098 31.509 34.8063 30.9779C35.9668 30.5255 37.4224 30.7616 40.2155 31.8827ZM24.6568 33.6333C24.8928 33.83 24.8928 33.9874 24.5191 34.7938C23.9487 36.0724 23.9683 37.7443 24.5584 39.1212C25.6599 41.5995 28.6497 42.8191 31.2658 41.8159C32.977 41.1668 32.7017 41.0095 35.9472 44.6483C37.6781 46.5956 38.9369 48.1889 38.9369 48.4053C38.9369 48.6806 37.206 50.2345 33.1934 53.5784C26.486 59.1252 26.368 59.2236 26.073 59.2236C25.955 59.2236 23.7323 57.591 21.1359 55.5847L16.4152 51.9458H14.4285H12.4419L12.3239 48.0315C12.2452 45.8875 12.2452 42.583 12.3042 40.7144L12.4419 37.2919L17.4773 35.2659C21.844 33.5153 22.6308 33.2596 23.4372 33.3186C23.9487 33.358 24.4994 33.4956 24.6568 33.6333Z" fill="#D0D3E6"/>
<path d="M26.726 0.299969C23.9978 1.02063 21.5269 2.59921 19.7767 4.70972C18.5757 6.16819 17.9236 7.31782 17.3402 9.01651C16.9113 10.2348 16.877 10.5436 16.877 13.1689C16.877 15.8113 16.9113 16.0858 17.3402 17.2698C18.0266 19.1915 18.9188 20.6329 20.2743 22.0399C22.1961 24.0817 23.9978 25.1627 26.5029 25.7976C32.9202 27.4276 39.3718 24.2876 42.0314 18.2307C43.4899 14.9191 43.284 10.1833 41.5338 6.9918C39.8008 3.81747 37.0383 1.53538 33.6752 0.471554C31.8907 -0.0775204 28.4761 -0.163313 26.726 0.299969ZM32.3025 2.37615C35.3224 2.92523 38.2908 5.27595 39.7493 8.26154C40.6244 10.046 40.8131 10.9383 40.8131 13.2547C40.8131 16.4119 39.8179 18.7797 37.5873 20.9074C35.6484 22.7777 33.9154 23.6528 31.4274 23.9788C29.6258 24.219 27.4638 24.0131 25.9538 23.4469C23.9291 22.6919 21.5784 20.7015 20.3773 18.7283C18.284 15.2622 18.4041 10.4922 20.669 7.04328C22.0245 4.98425 25.1302 2.78796 27.2407 2.37615C28.356 2.15309 31.1357 2.15309 32.3025 2.37615Z" fill="#D0D3E6"/>
<path d="M29.1275 4.58922C28.8701 4.8466 28.7843 5.15545 28.7843 5.87611C28.7843 6.71688 28.75 6.81983 28.4411 6.81983C28.2352 6.81983 27.8406 6.93994 27.5317 7.09437C25.6786 8.03809 25.0266 9.95985 25.9531 11.7787C26.4507 12.7739 26.8797 13.0655 29.4706 14.1122C30.5516 14.5412 31.564 15.0216 31.7356 15.1761C31.9243 15.3476 32.0444 15.6908 32.0444 16.1026C32.0444 17.1321 31.6841 17.2866 29.1275 17.2866C27.1885 17.2866 26.9312 17.3209 26.588 17.6297C26.159 18.0415 26.1076 18.6249 26.4507 19.0882C26.6223 19.3113 26.9655 19.4314 27.7376 19.4828L28.7843 19.5515V20.3065C28.7843 20.8555 28.8872 21.1472 29.1618 21.4046C29.9682 22.1424 30.7747 21.662 30.9463 20.3236C31.0492 19.5686 31.1007 19.5 31.6841 19.3456C32.4219 19.1568 33.5029 18.2989 33.8289 17.664C34.4981 16.3428 34.2579 14.6956 33.2627 13.7004C32.8166 13.2543 32.0616 12.8425 30.5859 12.2591C27.8749 11.1609 27.7548 11.0752 27.7548 10.2859C27.7548 9.10192 28.1151 8.93034 30.8262 8.89602C31.89 8.87886 32.9195 8.79307 33.0911 8.69012C33.5544 8.4499 33.6745 7.76355 33.3485 7.2488C33.1082 6.87131 32.9367 6.81983 32.0616 6.81983C30.9291 6.81983 30.8433 6.73404 30.8433 5.53294C30.8433 4.69217 30.5173 4.24605 29.8824 4.24605C29.6594 4.24605 29.3162 4.40048 29.1275 4.58922Z" fill="#D0D3E6"/>
</svg>
