<svg width="49" height="35" viewBox="0 0 49 35" fill="none" xmlns="http://www.w3.org/2000/svg">
<g id="Black">
<path id="Vector" d="M44.7114 0.434622C44.6793 0.466684 42.7075 0.626998 40.3188 0.77128C37.9461 0.931594 35.83 1.12397 35.6216 1.1881C34.82 1.49269 34.8521 2.82329 35.6697 3.0317C35.9903 3.11186 39.6294 2.90345 43.5731 2.56679C43.8617 2.53473 44.0701 2.56679 44.0541 2.63092C44.022 2.69504 42.7876 4.33024 41.2967 6.254C39.8058 8.17776 38.4431 9.98931 38.2668 10.2779C37.9782 10.7588 37.9782 10.8229 38.2347 11.2077C38.8439 12.1375 39.4691 11.9291 40.6715 10.358C45.6252 3.89739 45.4328 4.1058 45.545 4.6669C45.6091 4.95546 45.7053 6.17385 45.7694 7.39223C45.9618 10.9352 46.1061 12.0413 46.4107 12.394C46.7794 12.7948 47.3085 12.7948 47.7894 12.4261L48.1421 12.1215L47.8696 8.4503C47.7092 6.43035 47.5169 3.91342 47.4367 2.87139C47.2604 0.514778 47.1642 0.370497 45.7694 0.370497C45.2244 0.370497 44.7434 0.402559 44.7114 0.434622Z" fill="#5FD5EC"/>
<path id="Vector_2" d="M26.3714 6.63895C24.5118 6.83133 22.7804 7.79321 21.4818 9.33222C20.6001 10.3903 20.0711 11.6087 19.8787 13.0675C19.3978 16.4501 21.065 19.5442 24.143 21.003C25.2973 21.5481 25.5538 21.6122 27.0447 21.6603C29.3372 21.7565 30.78 21.2596 32.3351 19.8648C34.5314 17.893 35.381 15.1516 34.7077 12.282C34.3871 10.8873 33.6496 9.68491 32.5114 8.62684C30.748 6.99164 28.8242 6.36642 26.3714 6.63895ZM28.5677 8.72303C29.6899 8.9635 30.1869 9.23603 31.1487 10.1178C31.8381 10.775 32.7038 12.1056 32.7038 12.5385C32.7038 12.7629 30.6518 13.0996 29.257 13.0996C27.3333 13.0836 24.8805 12.2339 23.5659 11.1277L23.0048 10.6628L23.4857 10.1498C24.1591 9.44444 24.9286 9.01159 25.8744 8.77112C26.9325 8.51462 27.5257 8.49859 28.5677 8.72303ZM22.8124 13.0194C23.7903 13.6767 25.0408 14.2859 26.2592 14.6867C27.1249 14.9592 27.718 15.0394 29.3372 15.0394C30.4434 15.0394 31.6778 14.9753 32.1106 14.9111C32.832 14.7829 32.8641 14.7989 32.8641 15.1516C32.8641 15.6486 32.1587 17.1074 31.6457 17.7487C30.6197 18.9671 28.9043 19.7686 27.3012 19.7686C26.8684 19.7686 26.0508 19.6083 25.4736 19.4159C24.0949 18.951 22.6521 17.5563 22.1551 16.1936C21.7223 15.0394 21.6582 12.5545 22.075 12.5545C22.1071 12.5545 22.4437 12.7629 22.8124 13.0194Z" fill="#5FD5EC"/>
<path id="Vector_3" d="M12.1037 18.2929C11.8953 18.5334 9.07375 22.0763 5.85144 26.1803C2.05201 31.0218 0 33.7471 0 33.9876C0 34.4044 0.513003 34.9976 0.897756 34.9976C1.42679 34.9976 1.81154 34.5807 4.66512 30.9577C6.26826 28.9056 8.04774 26.6452 8.60884 25.9398C9.1539 25.2345 10.3883 23.6794 11.3181 22.4931C12.248 21.3068 13.0656 20.3128 13.1297 20.2808C13.1938 20.2647 13.9954 20.7457 14.9092 21.3709C16.6245 22.5252 17.2497 22.7175 17.6345 22.2366C18.0192 21.7877 17.891 21.0343 17.394 20.6655C15.4382 19.2227 13.2419 17.844 12.9052 17.844C12.6648 17.844 12.3441 18.0364 12.1037 18.2929Z" fill="#5FD5EC"/>
<path id="Vector_4" d="M25.8422 23.2954C23.0848 23.6641 20.632 25.0909 18.8686 27.2872C17.3295 29.2431 16.5119 31.3592 16.5119 33.5074C16.5119 35.1105 15.6302 34.9983 27.4453 34.9983C37.6733 34.9983 37.6733 34.9983 38.01 34.6616C38.3146 34.3571 38.3466 34.1967 38.2505 33.2509C38.01 30.5416 36.984 28.3774 35.0282 26.4215C32.5914 23.9687 29.2569 22.8465 25.8422 23.2954ZM26.2911 27.5758C26.2911 30.1889 26.4193 30.5737 27.285 30.6378C28.2469 30.7179 28.3751 30.3652 28.3751 27.672V25.3795H28.792C29.4172 25.3795 30.86 25.8284 31.6936 26.2933C32.912 26.9826 34.6755 28.8743 35.3328 30.221C35.974 31.5195 36.3107 32.8982 36.0061 33.0104C35.9099 33.0425 31.9662 33.0585 27.2529 33.0425L18.6762 32.9944L18.6281 32.6257C18.564 32.1928 19.109 30.7019 19.7342 29.5957C20.9687 27.4315 23.8383 25.4597 25.8582 25.3955L26.2911 25.3795V27.5758Z" fill="#5FD5EC"/>
</g>
</svg>
