<svg width="41" height="40" viewBox="0 0 41 40" fill="none" xmlns="http://www.w3.org/2000/svg">
<path d="M19.3381 0.18228C19.0202 0.430656 18.901 0.728709 18.901 1.2354V1.69241H18.5135C17.3809 1.69241 16.8246 2.51702 17.5002 3.19261C17.7585 3.44099 17.8677 3.48073 18.3446 3.48073H18.901V3.94767C18.901 4.79216 19.3878 5.28891 20.0435 5.12995C20.4012 5.04053 20.6893 4.52391 20.6893 3.94767V3.48073H21.2258C21.6928 3.48073 21.802 3.44099 22.0703 3.17274C22.7558 2.49715 22.2094 1.69241 21.0768 1.69241C20.6893 1.69241 20.6893 1.69241 20.6893 1.30494C20.6893 0.281631 19.9641 -0.324409 19.3381 0.18228Z" fill="#5FD5EC"/>
<path d="M29.7 1.00685C29.3622 1.20555 29.2331 1.64269 29.2331 2.58652V3.48068H28.5972C27.4646 3.48068 26.4811 3.95757 26.0936 4.7027C26.0042 4.87159 25.9048 5.34848 25.885 5.73594C25.8353 6.37179 25.8552 6.52081 26.0936 6.9977C26.2426 7.29575 26.6202 7.80244 26.9381 8.12036C27.5044 8.68666 27.7826 8.8953 30.2763 10.6439C31.6572 11.6175 32.7104 12.6011 32.7104 12.9091C32.7104 13.2369 32.5415 13.4952 32.2136 13.6641C31.9752 13.7834 31.4287 13.8132 29.1536 13.8132H26.3817L26.1135 14.0615C25.7657 14.3795 25.7558 14.916 26.1035 15.2537C26.332 15.4922 26.3817 15.5021 27.7925 15.5021H29.2331V16.4162C29.2331 17.1613 29.2728 17.3997 29.4318 17.658C29.7696 18.2243 30.4849 18.2243 30.8227 17.658C30.9817 17.3997 31.0214 17.1613 31.0214 16.4162V15.5021H31.6076C33.2469 15.5021 34.3993 14.4788 34.3993 13.0084C34.3993 11.7864 33.6443 10.8923 31.0512 9.094C27.8422 6.85861 27.2659 6.2625 27.6435 5.56705C27.8322 5.21932 28.2793 5.16964 31.1208 5.16964H33.8728L34.141 4.91133C34.4987 4.55367 34.4987 4.05692 34.141 3.72906C33.8827 3.49062 33.8231 3.48068 32.4521 3.48068H31.0214V2.58652C31.0214 1.62282 30.8823 1.18568 30.5346 0.996912C30.2862 0.867756 29.9285 0.877691 29.7 1.00685Z" fill="#5FD5EC"/>
<path d="M11.4497 9.60063C8.53875 10.157 5.91589 12.7004 5.34959 15.5219C4.73361 18.5422 5.7768 21.4631 8.13141 23.321C9.34349 24.2847 10.2774 24.6721 12.0856 24.9404C13.3771 25.1292 15.3443 24.7715 16.5067 24.1257C18.7719 22.864 20.1429 20.9366 20.5403 18.4329C20.7887 16.893 20.5602 15.2537 19.8945 13.8926C19.0401 12.1142 17.0531 10.3954 15.1356 9.76953C14.6786 9.63044 11.9763 9.50128 11.4497 9.60063ZM14.6091 11.4684C15.4834 11.7069 16.5762 12.3924 17.2816 13.1673C17.9274 13.8528 18.5136 14.8563 18.6527 15.4723C18.7123 15.7703 18.6924 15.8101 18.4341 15.9094C15.6225 16.9923 12.3141 16.2174 10.178 13.9721C9.34349 13.0878 9.09511 12.6805 9.27394 12.4619C9.53225 12.144 10.7245 11.5876 11.4895 11.4088C12.4035 11.2101 13.7249 11.23 14.6091 11.4684ZM8.41953 14.598C9.35342 15.7803 10.8238 16.8334 12.4035 17.4493C13.4169 17.8368 14.1421 17.9759 15.4734 18.0455C16.6259 18.1051 17.371 18.0057 18.6924 17.6282C18.9209 17.5586 18.9308 17.5686 18.8613 18.0455C18.7023 19.1582 18.3049 20.0722 17.5995 20.9763C17.073 21.632 16.9339 21.7612 16.1192 22.2977C15.0959 22.9732 14.311 23.1918 12.8903 23.1918C11.867 23.1918 11.5988 23.1521 10.9828 22.9335C9.93959 22.556 9.4031 22.2182 8.61823 21.4134C7.38628 20.1517 6.80011 18.6018 6.91933 16.893C6.94913 16.426 7.03855 15.82 7.1081 15.5517C7.26706 14.9656 7.73401 14.0118 7.8731 14.0118C7.92277 14.0118 8.17115 14.2801 8.41953 14.598Z" fill="#5FD5EC"/>
<path d="M38.0165 15.6016C37.6588 15.7407 37.48 16.0983 37.48 16.6547C37.48 17.2409 37.4204 17.2905 36.6951 17.2905C36.099 17.2905 35.791 17.5687 35.791 18.1251C35.791 18.6715 36.1487 18.9596 36.864 18.9994L37.4303 19.0292L37.48 19.6551C37.5396 20.3903 37.778 20.6685 38.3245 20.6685C38.8311 20.6685 39.1689 20.2114 39.1689 19.516V18.9795H39.6756C40.4506 18.9795 40.848 18.6914 40.8579 18.1251C40.8579 17.5886 40.5698 17.3501 39.8445 17.2905L39.2186 17.2409L39.1888 16.8931C39.1292 16.0785 39.0597 15.8897 38.7417 15.7009C38.394 15.4823 38.3245 15.4724 38.0165 15.6016Z" fill="#5FD5EC"/>
<path d="M22.0802 22.5263C21.3947 22.7548 20.8383 23.1919 20.5303 23.7483C20.4211 23.937 19.3083 27.1759 18.0565 30.9512C16.7947 34.7166 15.7317 37.8362 15.6721 37.876C15.6224 37.9157 13.3473 37.9554 10.6251 37.9554H5.67739L5.43895 38.2038C5.19058 38.4423 5.12103 38.8496 5.25019 39.1973C5.42902 39.6643 4.90246 39.6444 20.6893 39.6444C30.5946 39.6444 35.572 39.6146 35.6913 39.5451C35.8006 39.4854 35.9396 39.3464 35.9993 39.2271C36.2675 38.7204 40.5793 25.6459 40.629 25.1889C40.7284 24.1755 40.0726 23.1224 39.0295 22.6455C38.642 22.4667 38.2446 22.4567 30.4257 22.4667C25.9151 22.4667 22.1597 22.4965 22.0802 22.5263ZM38.5824 24.3543C38.8208 24.5133 38.8705 24.6325 38.8705 24.9405C38.8705 25.2882 34.8965 37.4686 34.668 37.8263C34.5487 38.025 17.6094 38.0151 17.6094 37.8263C17.6094 37.7468 18.2353 35.8095 19.0003 33.5244C19.7753 31.2393 20.7588 28.2886 21.196 26.9772C21.802 25.1491 22.0405 24.5431 22.2392 24.3643L22.4875 24.1457H30.3959C38.2247 24.1457 38.2943 24.1457 38.5824 24.3543Z" fill="#5FD5EC"/>
<path d="M27.9912 28.5568C27.1964 28.7853 26.6599 29.2126 26.2923 29.908C26.1532 30.1663 26.1035 30.4644 26.1035 31.0505C26.1035 31.9646 26.2426 32.2825 26.8586 32.8885C27.4249 33.435 27.9812 33.6237 28.8059 33.5542C29.6205 33.4946 29.9782 33.3257 30.5048 32.7494C31.8063 31.3387 31.1605 29.1132 29.3026 28.5668C28.7264 28.3979 28.5376 28.3979 27.9912 28.5568ZM29.1834 30.4544C29.5212 30.7823 29.5212 31.289 29.1735 31.6367C28.8456 31.9546 28.4383 31.9745 28.1005 31.6665C27.7031 31.3287 27.6733 30.9015 27.9912 30.524C28.329 30.1166 28.8257 30.0868 29.1834 30.4544Z" fill="#5FD5EC"/>
<path d="M11.0523 25.9836C8.20095 26.3711 5.76686 27.6428 3.59108 29.8782C1.45504 32.0639 0.272762 34.6768 0.0343197 37.7269C-0.055096 38.9588 0.0144496 39.2867 0.431723 39.4953C0.848996 39.7139 1.09737 39.6742 1.42523 39.3562C1.68354 39.0979 1.71335 38.9986 1.71335 38.4223C1.71335 37.6375 1.94185 36.2565 2.22997 35.3226C2.9751 32.8786 4.92238 30.4842 7.28693 29.0933C8.85667 28.1594 10.4065 27.7322 12.4532 27.6527C14.0428 27.5931 14.8674 27.7024 16.3875 28.1991C17.3412 28.4972 17.6393 28.4575 17.9274 27.9508C18.0963 27.6726 18.0963 27.603 17.9771 27.305C17.8976 27.1262 17.7287 26.9275 17.5995 26.8678C16.5961 26.381 15.5628 26.0929 14.2812 25.9439C13.1784 25.8147 12.2743 25.8247 11.0523 25.9836Z" fill="#5FD5EC"/>
<path d="M12.3338 29.6001L12.0457 29.8882V31.8752V33.8622L12.304 34.1702C12.6418 34.5776 13.0988 34.5875 13.4763 34.2199L13.7346 33.9516V31.8951V29.8385L13.4763 29.5703C13.1186 29.2225 12.7113 29.2325 12.3338 29.6001Z" fill="#5FD5EC"/>
</svg>
