<svg width="40" height="40" viewBox="0 0 40 40" fill="none" xmlns="http://www.w3.org/2000/svg">
<path d="M26.6838 0.331317C26.4787 0.632211 26.465 0.755303 26.6018 1.09723C26.8206 1.60328 26.9163 1.63063 29.3919 1.91784C30.1578 1.99991 30.7869 2.08197 30.8143 2.10932C30.8553 2.13668 29.8295 2.82053 28.0378 3.98307C27.5181 4.32499 25.9179 5.35076 24.5092 6.26712C23.0868 7.1698 21.9242 7.92203 21.9106 7.92203C21.8832 7.92203 21.0489 6.95097 20.0368 5.7474C17.9853 3.34025 17.657 3.06671 17.0963 3.27186C16.9048 3.34025 14.7028 4.92678 12.2273 6.77317C8.27462 9.72739 7.72754 10.1787 7.72754 10.4933C7.74122 10.9583 8.00108 11.3002 8.42506 11.4097C8.71228 11.478 9.31407 11.0814 12.2409 8.90677C14.1557 7.48437 16.0705 6.06197 16.4808 5.7474L17.233 5.17296L17.6433 5.63798C17.8758 5.88417 18.7238 6.88258 19.5444 7.83997C21.1583 9.72739 21.5002 10.0283 21.8969 9.89152C22.0336 9.83681 23.3056 9.05722 24.7143 8.14086C26.1231 7.22451 27.5318 6.33551 27.8327 6.14403C28.1336 5.95255 29.1867 5.28238 30.1714 4.65324C31.1562 4.03778 31.9768 3.5454 32.0178 3.57276C32.0452 3.60011 31.8811 4.50279 31.6486 5.58327C31.1699 7.83997 31.1699 8.16822 31.7033 8.46911C32.0315 8.64691 32.1136 8.64691 32.4418 8.46911C32.647 8.34602 32.8521 8.08616 32.9205 7.83997C33.0846 7.18348 34.1514 2.16403 34.2198 1.67166C34.3292 1.01517 33.9326 0.714272 32.7974 0.604856C32.2914 0.550149 31.2793 0.427055 30.5681 0.331317C29.8569 0.221901 28.749 0.0988083 28.0925 0.0441008C26.93 -0.037961 26.93 -0.037961 26.6838 0.331317Z" fill="#5FD5EC"/>
<path d="M12.6512 15.034C11.2561 15.2666 10.7227 15.417 10.0936 15.7452C9.86109 15.8547 9.69697 15.8547 9.42343 15.7316C8.87635 15.4854 7.20776 15.3896 6.30508 15.5674C5.07415 15.8 4.11677 16.306 3.21409 17.195C2.27038 18.1387 1.76433 19.1371 1.58653 20.4228C1.44976 21.3391 1.57285 22.8299 1.84639 23.6095C1.99684 24.0198 1.96948 24.0608 1.3677 24.6216C1.0121 24.9498 0.560756 25.5243 0.369278 25.9072L0 26.5911V29.9419C0 32.2944 0.0547079 33.4706 0.177801 33.9083C0.410309 34.6742 1.09416 36.0419 1.51814 36.5479C2.06522 37.1907 3.25512 38.1618 3.76117 38.3806C4.02103 38.4764 4.39031 38.6405 4.56811 38.7362C4.77326 38.8456 5.53917 38.9004 6.61965 38.9004C8.3156 38.8867 8.35663 38.8867 9.40975 38.3943C10.6817 37.7925 11.3519 37.2181 12.5828 35.7136C13.0889 35.0982 13.5539 34.5921 13.6223 34.5921C13.6906 34.5921 14.7027 35.4674 15.879 36.5342C18.3545 38.8183 19.2572 39.3654 20.6112 39.4748C21.3908 39.5432 21.6233 39.5021 22.3071 39.1876C23.4286 38.6678 23.8663 38.2986 24.6869 37.1634C25.0836 36.6163 25.7674 35.6863 26.2187 35.0982C26.6564 34.51 27.012 33.9903 27.012 33.9356C27.012 33.8809 27.1761 33.6621 27.3676 33.4432L27.7095 33.0466L27.942 33.3749C28.0651 33.5527 28.2429 33.8125 28.3113 33.9493C28.3934 34.0861 29.0225 35.1392 29.7201 36.3017C31.416 39.1055 32.1545 39.6526 34.1924 39.6526C35.1498 39.6526 36.2576 39.2012 36.9688 38.5174C37.9399 37.601 38.5417 35.7957 38.3092 34.5511C38.2682 34.2912 37.639 33.0603 36.9278 31.8157C36.2166 30.5711 35.6285 29.4906 35.6285 29.4222C35.6285 29.3538 35.9567 29.2581 36.3671 29.2171C37.7484 29.0803 39.0614 28.1366 39.6769 26.8236C40.0051 26.1261 40.0325 25.9483 39.9778 24.7584C39.9094 23.2402 39.7453 22.8162 38.8289 21.9272C37.8031 20.9425 36.3534 20.5322 34.6711 20.7784C34.1104 20.8604 32.4418 21.0382 30.9783 21.1887C26.3555 21.64 25.8905 21.7358 25.193 22.3923C24.7416 22.8162 23.8663 23.9378 23.1414 25.0319C22.8679 25.4559 22.526 25.8936 22.3892 26.0167C22.1567 26.2218 22.1157 26.2218 21.637 25.8252L21.1446 25.4149L21.5412 24.6763C22.1567 23.5548 22.4439 21.8725 22.2524 20.5595C21.8831 17.8789 19.9137 15.6222 17.3697 14.952C16.4397 14.6921 14.3882 14.7332 12.6512 15.034ZM17.6843 16.8804C19.476 17.6874 20.5838 19.4654 20.5838 21.558C20.5838 22.6658 20.365 23.3496 19.6812 24.4028C18.9016 25.6063 18.9016 25.6063 20.1188 26.7415L21.1719 27.7536L20.6385 28.5195C19.8179 29.6958 19.6538 29.983 19.6401 30.3112C19.6264 30.7352 19.982 31.0361 20.5155 31.0361C21.0078 31.0361 21.1583 30.8583 23.1961 27.9177C23.6748 27.2202 24.3997 26.2081 24.81 25.661C25.2067 25.114 25.6853 24.4438 25.8631 24.1703C26.0409 23.8967 26.3145 23.5958 26.4786 23.5138C26.6291 23.4317 27.5728 23.2676 28.5575 23.1582C29.5559 23.0624 31.4981 22.8436 32.8931 22.6931C36.3123 22.3239 36.4081 22.3375 37.1877 22.8436C38.3776 23.6369 38.7195 25.1003 38.0083 26.3175C37.3928 27.3707 36.7637 27.5485 32.0041 27.9725C30.3902 28.1092 29.2824 28.2733 29.0909 28.3964C28.9268 28.4922 28.5985 28.8478 28.3797 29.1624C28.1472 29.4769 27.7095 30.1061 27.3813 30.5574C27.0667 30.9951 26.2461 32.1439 25.5486 33.0876C22.1977 37.6421 22.2524 37.5874 21.0078 37.6968C19.9957 37.7925 19.6264 37.601 18.0536 36.1786C17.3834 35.5632 16.6038 34.8656 16.344 34.6331C16.0841 34.4143 15.4413 33.8399 14.9079 33.3612C13.8274 32.3901 13.5265 32.2397 13.1162 32.4585C12.9658 32.5406 12.1862 33.4022 11.4066 34.387C10.121 35.9872 9.88845 36.206 9.09518 36.6026C8.09676 37.095 6.5923 37.3959 5.74433 37.2454C4.37663 37.0266 2.81746 35.7547 2.14728 34.3322C1.79168 33.58 1.79168 33.4843 1.73697 30.4343C1.70962 28.711 1.7233 27.1655 1.76433 27.0151C1.86007 26.6458 2.77642 25.5653 2.99526 25.5653C3.07732 25.5653 3.36453 25.7568 3.6244 26.003C4.40398 26.7005 5.64859 27.2202 6.83848 27.3023C7.39924 27.3433 7.86426 27.4254 7.86426 27.4664C7.86426 27.5211 7.57704 27.8357 7.23512 28.1639C6.16831 29.2034 6.01787 29.8325 6.72907 30.2839C7.33085 30.6805 7.16673 30.8173 11.2835 26.1808C12.2819 25.0456 13.3214 23.883 13.5949 23.5821C15.2361 21.7768 15.4823 21.2844 15.072 20.7237C14.8395 20.4091 14.224 20.3954 13.8958 20.6963C13.4992 21.0519 13.3761 20.9562 13.294 20.2176C13.1983 19.438 12.7196 18.3986 12.0768 17.5916C11.8579 17.3044 11.6938 17.0309 11.7348 16.9899C11.7759 16.9488 12.446 16.812 13.2256 16.6616C15.1951 16.306 16.5628 16.3744 17.6843 16.8804ZM8.23353 17.2224C10.2714 17.5506 11.6938 19.2329 11.6938 21.3255C11.6938 24.2113 9.46446 26.003 6.49656 25.5106C4.48605 25.1687 3.09099 23.2402 3.24144 21.0519C3.40556 18.8499 4.89635 17.3865 7.24879 17.0993C7.33085 17.0993 7.76852 17.154 8.23353 17.2224ZM34.1377 30.4206C34.4113 30.872 34.8352 31.6105 35.0814 32.0619C35.3276 32.5132 35.7653 33.2518 36.0662 33.7168C36.5038 34.428 36.5859 34.6605 36.5859 35.3307C36.5859 36.247 36.3807 36.712 35.7106 37.3001C34.7942 38.0934 33.6727 38.1892 32.7563 37.56C32.3324 37.2728 32.0178 36.8078 29.6653 32.8825C29.255 32.2123 28.9268 31.5832 28.9268 31.4874C28.9268 31.3917 29.1593 31.0087 29.4328 30.6395C29.9115 29.9966 29.9936 29.9556 30.7048 29.8736C31.1151 29.8188 31.7306 29.7368 32.0725 29.6684C32.4144 29.6137 32.9068 29.5727 33.1666 29.5727C33.5906 29.6 33.6864 29.6821 34.1377 30.4206Z" fill="#5FD5EC"/>
</svg>
