<svg width="16" height="16" viewBox="0 0 16 16" fill="none" xmlns="http://www.w3.org/2000/svg">
<path d="M16 5.01775C16 4.4655 15.5523 4.01775 15 4.01775H13.293C13.7348 3.582 14.0175 3.01077 14.0175 2.30725C14.0175 1.441 13.52 0.5 12.1235 0.5C10.286 0.5 8.751 2.4565 8.02975 3.55325C7.308 2.45675 5.726 0.50025 3.88875 0.50025C2.49225 0.50025 1.99475 1.44125 1.99475 2.3075C1.99475 3.01075 2.28525 3.58225 2.736 4.018H1C0.44775 4.018 0 4.46575 0 5.018V8.01125H1.00875V14.52C1.00875 15.0723 1.45648 15.52 2.00875 15.52H14.0037C14.556 15.52 15.0037 15.0723 15.0037 14.52V8.011H16V5.01775H16ZM12.1235 1.50025C12.7417 1.50025 13.0175 1.76002 13.0175 2.30752C13.0175 3.41827 11.7777 4.0175 10.6117 4.0175H8.919C9.62948 2.96225 10.88 1.50025 12.1235 1.50025ZM3.88873 1.50027C5.13248 1.50027 6.43022 2.96227 7.14072 4.01727H5.44747C4.28147 4.01727 2.99472 3.40252 2.99472 2.29177C2.99472 1.74452 3.27047 1.50027 3.88873 1.50027ZM15 7.011H8.49998V5.01775H15V7.011ZM0.999984 5.01775H7.49998V7.011H0.999984V5.01775ZM2.00873 8.011H7.49998V14.5198H2.00873V8.011ZM14.004 14.5198H8.49998V8.011H14.004V14.5198Z" fill="#5FD5EC"/>
</svg>
