<svg width="53" height="57" viewBox="0 0 53 57" fill="none" xmlns="http://www.w3.org/2000/svg">
<path d="M35.849 0.431316C33.1208 1.15198 30.65 2.73056 28.8998 4.84106C27.6987 6.29954 27.0467 7.44917 26.4633 9.14786C26.0343 10.3661 26 10.675 26 13.3002C26 15.9427 26.0343 16.2172 26.4633 17.4011C27.1496 19.3229 28.0419 20.7642 29.3974 22.1712C31.3192 24.2131 33.1208 25.2941 35.6259 25.9289C42.0433 27.559 48.4949 24.419 51.1544 18.362C52.6129 15.0504 52.407 10.3146 50.6568 7.12315C48.9238 3.94882 46.1613 1.66673 42.7982 0.602901C41.0137 0.0538273 37.5992 -0.0319653 35.849 0.431316ZM41.4255 2.5075C44.4454 3.05657 47.4139 5.4073 48.8724 8.39289C49.7474 10.1774 49.9362 11.0696 49.9362 13.386C49.9362 16.5432 48.941 18.9111 46.7104 21.0387C44.7715 22.909 43.0384 23.7841 40.5505 24.1101C38.7488 24.3503 36.5868 24.1444 35.0769 23.5782C33.0522 22.8232 30.7014 20.8328 29.5003 18.8596C27.407 15.3936 27.5271 10.6235 29.792 7.17463C31.1476 5.1156 34.2533 2.91931 36.3638 2.5075C37.4791 2.28444 40.2588 2.28444 41.4255 2.5075Z" fill="#D0D3E6"/>
<path d="M38.2505 4.72057C37.9931 4.97795 37.9073 5.2868 37.9073 6.00746C37.9073 6.84823 37.873 6.95118 37.5642 6.95118C37.3583 6.95118 36.9636 7.07129 36.6548 7.22572C34.8016 8.16944 34.1496 10.0912 35.0762 11.91C35.5738 12.9052 36.0027 13.1969 38.5937 14.2436C39.6747 14.6725 40.687 15.153 40.8586 15.3074C41.0474 15.479 41.1675 15.8222 41.1675 16.234C41.1675 17.2635 40.8071 17.4179 38.2505 17.4179C36.3116 17.4179 36.0542 17.4522 35.711 17.7611C35.2821 18.1729 35.2306 18.7563 35.5738 19.2195C35.7454 19.4426 36.0885 19.5627 36.8607 19.6142L37.9073 19.6828V20.4378C37.9073 20.9869 38.0103 21.2786 38.2848 21.536C39.0913 22.2738 39.8977 21.7933 40.0693 20.455C40.1723 19.7 40.2237 19.6314 40.8071 19.4769C41.545 19.2882 42.6259 18.4303 42.952 17.7954C43.6211 16.4742 43.3809 14.827 42.3857 13.8318C41.9396 13.3856 41.1846 12.9738 39.709 12.3904C36.9979 11.2923 36.8778 11.2065 36.8778 10.4172C36.8778 9.23327 37.2382 9.06168 39.9492 9.02737C41.013 9.01021 42.0425 8.92441 42.2141 8.82146C42.6774 8.58124 42.7975 7.8949 42.4715 7.38015C42.2313 7.00266 42.0597 6.95118 41.1846 6.95118C40.0522 6.95118 39.9664 6.86539 39.9664 5.66429C39.9664 4.82352 39.6404 4.3774 39.0055 4.3774C38.7824 4.3774 38.4393 4.53182 38.2505 4.72057Z" fill="#D0D3E6"/>
<path d="M0.447155 5.97519C0.282052 6.12195 0.116948 6.43381 0.0619138 6.65395C0.00687931 6.87408 -0.0114655 17.9177 0.00687931 31.1993C0.0619138 54.6624 0.0802586 55.3778 0.410466 55.7447L0.759017 56.1299H26.2767C54.6561 56.1299 52.6198 56.2217 52.6198 54.9192C52.6198 54.3688 52.5281 54.2404 52.0328 54.0386C51.5375 53.8368 46.9696 53.8002 28.2212 53.8552C15.4532 53.8735 4.40964 53.8552 3.69419 53.8002L2.35502 53.6901V50.5164V47.3611L8.20702 43.949C11.4357 42.0778 14.1874 40.5368 14.3158 40.5368C14.4443 40.5368 14.7194 40.6469 14.9212 40.7753C15.123 40.9221 16.2054 41.5091 17.3061 42.0962C18.4251 42.6832 19.8193 43.417 20.4247 43.7472C21.0301 44.0774 22.1491 44.6828 22.9012 45.068C23.6534 45.4716 25.7814 46.5906 27.5975 47.5629C29.432 48.5535 31.0463 49.3424 31.2114 49.3424C31.4866 49.3424 32.0003 48.9755 37.4854 44.7928C39.0997 43.5454 41.1727 41.9677 42.0716 41.289C42.9888 40.5919 44.8233 39.1977 46.1625 38.152C47.52 37.1247 48.6574 36.3359 48.7124 36.3726C48.7674 36.4276 48.6207 37.4916 48.4005 38.7391C47.9052 41.5091 47.8869 42.1879 48.3272 42.4997C48.8408 42.885 49.648 42.7933 49.9415 42.3163C50.0883 42.0962 50.4918 40.1333 50.8587 37.9686C51.2256 35.8039 51.5742 33.8593 51.6292 33.6575C51.6843 33.4191 51.5742 33.0888 51.3357 32.777L50.9505 32.2817H46.6394H42.3284L41.8698 32.7403C41.3378 33.2723 41.3928 33.8043 42.0165 34.3363C42.3284 34.6115 42.7503 34.6665 44.5848 34.6665C45.9423 34.6665 46.7312 34.7399 46.6578 34.8499C46.6027 34.9417 45.0067 36.2075 43.1172 37.6384C41.2277 39.0876 38.9346 40.8304 37.999 41.5458C37.0818 42.2429 35.1556 43.7288 33.7063 44.8295L31.1014 46.8291L29.9823 46.2604C29.3586 45.9486 27.5792 44.9946 26.0198 44.1508C24.4605 43.3069 22.2225 42.1145 21.0667 41.5091C19.911 40.8854 17.9298 39.8397 16.7007 39.1793C15.4532 38.5189 14.3158 37.9686 14.1507 37.9686C14.004 37.9686 12.3896 38.8491 10.5552 39.9315C4.00605 43.7472 2.86867 44.4076 2.61184 44.5177C2.39171 44.5911 2.35502 43.2335 2.35502 35.3269V26.0444H5.27184C8.50053 26.0444 8.77571 25.9527 8.77571 24.9437C8.77571 23.9348 8.50053 23.8431 5.27184 23.8431H2.35502V15.2944C2.35502 6.78236 2.31833 6.21367 1.73129 5.82843C1.38274 5.58995 0.740672 5.66333 0.447155 5.97519Z" fill="#D0D3E6"/>
<path d="M15.8938 17.2574C12.7018 20.0825 12.0781 20.7612 12.0781 21.2932C12.0781 21.5501 12.2249 21.8986 12.4083 22.0637C13.1238 22.7241 13.5824 22.4856 16.1507 20.1559C17.4898 18.9267 18.774 17.7343 19.0125 17.4775C19.5078 16.9455 19.5261 16.3034 19.0858 15.8999C18.4071 15.2761 17.8751 15.4963 15.8938 17.2574Z" fill="#D0D3E6"/>
</svg>
