<svg width="70" height="71" viewBox="0 0 70 71" fill="none" xmlns="http://www.w3.org/2000/svg">
<g id="Interface / Settings">
<g id="Vector">
<path d="M59.354 26.6917L58.2859 26.0975C58.12 26.0052 58.0384 25.9589 57.9583 25.9109C57.1618 25.4338 56.4905 24.7746 56.0005 23.9859C55.9513 23.9066 55.9048 23.8233 55.8098 23.6589C55.7149 23.4946 55.6668 23.4114 55.6227 23.329C55.1832 22.5084 54.9455 21.594 54.9313 20.6633C54.9299 20.5698 54.9302 20.4742 54.9334 20.2841L54.9543 19.0438C54.9877 17.0589 55.0044 16.0634 54.7255 15.17C54.4777 14.3764 54.0632 13.6455 53.5097 13.0252C52.884 12.324 52.018 11.8238 50.284 10.8246L48.8437 9.9946C47.1146 8.99819 46.2498 8.49982 45.3318 8.30983C44.5196 8.14174 43.6815 8.14953 42.8723 8.33119C41.959 8.53622 41.105 9.04758 39.3979 10.0697L39.3883 10.0744L38.3563 10.6923C38.1931 10.79 38.1105 10.8392 38.0287 10.8847C37.2171 11.336 36.311 11.5855 35.3828 11.6153C35.2893 11.6183 35.1941 11.6183 35.0038 11.6183C34.8147 11.6183 34.7155 11.6183 34.6221 11.6153C33.6919 11.5854 32.784 11.3345 31.9711 10.8814C31.8891 10.8357 31.8081 10.786 31.6446 10.6879L30.606 10.0644C28.8873 9.03256 28.0267 8.51588 27.1083 8.30983C26.2958 8.12753 25.4548 8.12248 24.6397 8.29274C23.7194 8.48497 22.8543 8.98704 21.1242 9.99118L21.1165 9.9946L19.6942 10.8201L19.6784 10.8297C17.9639 11.8248 17.1045 12.3236 16.4841 13.0219C15.9336 13.6416 15.522 14.3714 15.2757 15.1629C14.9973 16.0575 15.0122 17.0551 15.0457 19.0494L15.0666 20.288C15.0697 20.4755 15.0752 20.5687 15.0738 20.661C15.06 21.5936 14.8192 22.5098 14.3784 23.3318C14.3348 23.4131 14.2879 23.4944 14.1941 23.6568C14.1002 23.8193 14.0548 23.9001 14.0061 23.9785C13.514 24.7714 12.8396 25.4344 12.0381 25.9124C11.9588 25.9596 11.8752 26.0051 11.711 26.0961L10.6565 26.6805C8.90191 27.6528 8.02483 28.1394 7.38662 28.8319C6.82203 29.4444 6.39553 30.1711 6.13518 30.9624C5.84088 31.857 5.84113 32.86 5.84569 34.866L5.84941 36.5056C5.85394 38.4981 5.86015 39.4937 6.1551 40.3822C6.41604 41.1683 6.83944 41.8906 7.40086 42.4995C8.03546 43.1877 8.90382 43.6713 10.6451 44.64L11.6902 45.2214C11.8681 45.3204 11.9576 45.3692 12.0434 45.4209C12.8377 45.8991 13.5068 46.5604 13.9947 47.3487C14.0474 47.4339 14.098 47.5223 14.1992 47.6991C14.2991 47.8737 14.3503 47.961 14.3965 48.0485C14.8243 48.8584 15.0533 49.7583 15.0689 50.6741C15.0706 50.7731 15.0692 50.8732 15.0658 51.0743L15.0457 52.2629C15.0119 54.264 14.9972 55.2657 15.2773 56.1628C15.525 56.9564 15.9391 57.6872 16.4927 58.3076C17.1184 59.0088 17.9858 59.5087 19.7198 60.5079L21.1598 61.3377C22.8889 62.3341 23.7532 62.8319 24.6712 63.0219C25.4833 63.19 26.3219 63.1834 27.1311 63.0018C28.0457 62.7964 28.9027 62.2833 30.6146 61.2583L31.6466 60.6403C31.8098 60.5426 31.8925 60.4936 31.9743 60.4481C32.7859 59.9968 33.6911 59.746 34.6193 59.7162C34.7128 59.7132 34.808 59.7132 34.9983 59.7132C35.189 59.7132 35.284 59.7132 35.3778 59.7162C36.308 59.7462 37.2187 59.9978 38.0316 60.4509C38.1031 60.4908 38.1748 60.5339 38.3006 60.6095L39.3977 61.2681C41.1166 62.3001 41.9754 62.8152 42.8939 63.0213C43.7064 63.2036 44.548 63.211 45.3631 63.0408C46.2832 62.8486 47.15 62.3455 48.8792 61.3419L50.3229 60.504C52.0385 59.5083 52.8988 59.009 53.5194 58.3104C54.07 57.6908 54.482 56.9613 54.7283 56.1698C55.0047 55.2817 54.9881 54.2917 54.955 52.3263L54.9334 51.0444C54.9303 50.8568 54.9299 50.7635 54.9313 50.6713C54.9451 49.7387 55.182 48.8218 55.6227 47.9998C55.6662 47.9187 55.7136 47.8367 55.8071 47.6749C55.9009 47.5124 55.9495 47.4314 55.9981 47.353C56.4903 46.5601 57.1653 45.8965 57.9669 45.4185C58.0452 45.3718 58.1258 45.3271 58.2861 45.2383L58.2916 45.2358L59.3461 44.6514C61.1007 43.6791 61.9795 43.1919 62.6177 42.4995C63.1823 41.8869 63.6082 41.1613 63.8686 40.3699C64.1611 39.4807 64.1589 38.4834 64.1543 36.5009L64.1505 34.8261C64.146 32.8336 64.1436 31.8381 63.8486 30.9496C63.5877 30.1636 63.1619 29.4412 62.6005 28.8323C61.9665 28.1447 61.0969 27.661 59.359 26.6942L59.354 26.6917Z" stroke="#F4F9FF" stroke-width="6" stroke-linecap="round" stroke-linejoin="round"/>
<path d="M23.3343 35.6664C23.3343 42.1097 28.5576 47.3331 35.001 47.3331C41.4443 47.3331 46.6676 42.1097 46.6676 35.6664C46.6676 29.2231 41.4443 23.9997 35.001 23.9997C28.5576 23.9997 23.3343 29.2231 23.3343 35.6664Z" stroke="#F4F9FF" stroke-width="6" stroke-linecap="round" stroke-linejoin="round"/>
</g>
</g>
</svg>
