<svg width="38" height="40" viewBox="0 0 38 40" fill="none" xmlns="http://www.w3.org/2000/svg">
<g id="Black">
<path id="Vector" d="M1.53427 0.195747C0.933996 0.502552 0.520477 0.929411 0.253691 1.51634C0.0135835 2.02323 0.000244141 2.65018 0.000244141 13.495C0.000244141 24.5 0.0135835 24.9535 0.253691 25.4337C0.627192 26.1541 1.18744 26.6209 1.90777 26.821C2.92155 27.0878 3.49514 26.6476 3.28172 25.7939C3.21502 25.5538 3.05495 25.4337 2.62809 25.327C2.32128 25.247 1.9878 25.0736 1.90777 24.9535C1.77437 24.7934 1.73436 22.2857 1.73436 13.455C1.73436 2.19665 1.73436 2.15663 2.01448 1.90318C2.28127 1.66307 2.84152 1.66307 18.5419 1.64973C34.3356 1.64973 34.7892 1.66307 35.0693 1.90318L35.3494 2.15663V13.4417C35.3494 19.6445 35.2961 24.7934 35.2427 24.8735C35.0293 25.1936 34.5224 25.327 33.4953 25.327C32.5482 25.327 32.4014 25.3537 32.228 25.6205C31.9479 26.0207 31.9612 26.3408 32.2814 26.6609C32.5082 26.8877 32.7216 26.9277 33.7354 26.9277C34.3757 26.9277 35.1093 26.861 35.3628 26.781C35.963 26.5676 36.5233 26.0473 36.8301 25.3937C37.0702 24.8868 37.0835 24.2732 37.0835 13.455V2.03657L36.7901 1.44964C36.6167 1.1295 36.2565 0.675962 35.9764 0.462534L35.4561 0.049015L18.702 0.00899696C3.69523 -0.0176811 1.89443 0.00899696 1.53427 0.195747Z" fill="#5FD5EC"/>
<path id="Vector_2" d="M26.8125 4.21051C26.1455 4.46396 26.1455 4.43728 26.1455 8.39906V12.1074L26.4923 12.3742C26.8258 12.641 27.0259 12.6543 29.427 12.6543C30.8409 12.6543 32.1482 12.6009 32.3216 12.5342C32.5084 12.4542 32.7085 12.2675 32.7618 12.094C32.8285 11.9206 32.8685 10.2132 32.8685 8.279C32.8685 4.83746 32.8552 4.77076 32.5751 4.4773C32.2816 4.19717 32.1615 4.18383 29.6404 4.15715C28.1998 4.14381 26.9192 4.17049 26.8125 4.21051ZM31.2144 8.38572V10.9335L29.5204 10.8935L27.8129 10.8535L27.7729 8.51911C27.7596 7.23853 27.7729 6.11803 27.7996 6.02466C27.8529 5.89126 28.3065 5.85125 29.547 5.85125H31.2144V8.38572Z" fill="#5FD5EC"/>
<path id="Vector_3" d="M5.33646 5.31744C5.01632 5.63758 5.00298 5.95772 5.2831 6.3579C5.48319 6.63803 5.54989 6.65137 8.00432 6.65137C10.4588 6.65137 10.5255 6.63803 10.7255 6.3579C11.0057 5.95772 10.9923 5.63758 10.6722 5.31744C10.4187 5.06399 10.232 5.05065 8.00432 5.05065C5.77666 5.05065 5.58991 5.06399 5.33646 5.31744Z" fill="#5FD5EC"/>
<path id="Vector_4" d="M5.64248 9.31969C5.06889 9.5598 4.90882 10.2268 5.33567 10.6536C5.57578 10.8937 5.77587 10.9204 7.1765 10.9204C8.93729 10.9204 9.33747 10.7737 9.33747 10.1467C9.33747 9.67985 9.20408 9.4931 8.76388 9.33303C8.31034 9.15962 6.056 9.15962 5.64248 9.31969Z" fill="#5FD5EC"/>
<path id="Vector_5" d="M16.2075 10.6668C11.6054 11.3338 7.49691 15.2556 6.60317 19.831C6.34972 21.0982 6.34972 23.5526 6.60317 24.8199C7.52358 29.502 11.5787 33.3037 16.4342 34.0106C18.5285 34.3175 21.4365 33.8906 23.1172 33.0502C23.5975 32.7968 25.1448 31.8097 25.7051 31.3961C25.8385 31.3028 26.959 32.3432 30.2538 35.638C33.0684 38.4393 34.7224 40 34.8959 40C35.3627 40 35.7496 39.6265 35.7496 39.1596C35.7496 38.7728 35.296 38.2792 31.4143 34.3975L27.079 30.0622L27.6926 29.1952C28.493 28.048 28.9732 27.1142 29.4267 25.7269C29.7736 24.6598 29.8002 24.4597 29.8002 22.3254C29.8002 20.1911 29.7736 19.991 29.4267 18.9239C28.453 15.9759 26.6922 13.7349 24.1577 12.2009C21.8233 10.7869 19.0488 10.2533 16.2075 10.6668ZM20.0759 12.401C23.6775 13.0412 26.9189 16.0559 27.8927 19.6709C28.2929 21.1382 28.2796 23.4993 27.8927 24.9799C26.7589 29.2752 22.637 32.3966 18.1417 32.3966C14.6735 32.3966 11.5254 30.6892 9.59118 27.7545C8.08384 25.4601 7.6303 22.5789 8.32394 19.831C8.8175 17.9101 9.60452 16.5361 11.0185 15.1622C13.593 12.6677 16.5143 11.7873 20.0759 12.401Z" fill="#5FD5EC"/>
<path id="Vector_6" d="M14.0339 19.1373C13.687 19.3774 13.647 19.9377 13.9272 20.3379C14.1139 20.578 14.314 20.5913 18.3291 20.5913C22.3709 20.5913 22.5444 20.578 22.7311 20.3245C23.0246 19.9377 22.9845 19.5108 22.6511 19.1907C22.3709 18.9372 22.1975 18.9239 18.3425 18.9239C14.9276 18.9239 14.2873 18.9506 14.0339 19.1373Z" fill="#5FD5EC"/>
<path id="Vector_7" d="M13.967 24.2328C13.7269 24.4863 13.6735 25.0199 13.8469 25.2867C14.047 25.6068 14.7006 25.6602 18.5157 25.6602H22.4375L22.6909 25.34C23.011 24.9398 23.011 24.593 22.6776 24.2595C22.4241 24.0061 22.2374 23.9927 18.3023 23.9927C14.4739 23.9927 14.1671 24.0061 13.967 24.2328Z" fill="#5FD5EC"/>
</g>
</svg>
