<svg width="40" height="41" viewBox="0 0 40 41" fill="none" xmlns="http://www.w3.org/2000/svg">
<path d="M3.06009 0.162958C1.66585 0.525099 0.362141 1.91934 0.0905352 3.34074C0.0362141 3.63951 0 7.88561 0 14.9655C0 24.5622 0.018107 26.1918 0.135803 26.6354C0.552265 28.256 1.91029 29.5235 3.49466 29.777C4.28231 29.9038 15.2552 29.8947 15.5087 29.768C15.9976 29.5145 16.1334 29.0799 15.8889 28.6001C15.7622 28.3466 15.6445 28.2922 15.1646 28.2198C14.9926 28.1927 14.9836 28.1112 14.9564 25.3589L14.9383 22.5342H15.7531C17.0297 22.5342 17.4823 22.2354 17.3375 21.484C17.247 20.9679 17.0297 20.8684 15.9251 20.8321L14.9383 20.7959V18.1342V15.4725H18.8313H22.7243L22.8149 15.6988C22.8601 15.8165 23.0322 15.9885 23.1861 16.07C23.5844 16.2692 24.0643 16.1334 24.2906 15.7441L24.4536 15.4725H28.4371H32.4116L32.5021 15.6988C32.5474 15.8255 32.7285 15.9885 32.9005 16.07C33.4528 16.3416 33.9779 16.0338 34.0684 15.4C34.0956 15.219 34.1046 12.4486 34.0865 9.25269C34.0684 4.95227 34.0322 3.35885 33.9507 3.0963C33.5795 1.95555 32.7104 0.923454 31.6873 0.39835C30.8997 -0.009058 31.1079 -5.72205e-06 17.0206 -5.72205e-06C4.70783 0.00904846 3.62141 0.0181026 3.06009 0.162958ZM30.8725 1.90123C31.4881 2.19095 31.9951 2.707 32.2124 3.25021C32.3392 3.57614 32.3663 3.94733 32.3663 5.15145V6.64528H17.0206H1.6749V5.15145C1.6749 3.79342 1.69301 3.6214 1.88313 3.20494C2.22717 2.4535 2.81564 1.96461 3.62141 1.74732C3.93828 1.65679 6.98026 1.63868 17.2017 1.64774L30.3746 1.66584L30.8725 1.90123ZM13.1729 11.0362V13.707H7.42389H1.6749L1.64774 11.1268C1.63869 9.70537 1.64774 8.50125 1.6749 8.43787C1.70206 8.33829 2.87902 8.32018 7.44199 8.33829L13.1729 8.36545V11.0362ZM22.6791 11.0362V13.707L18.8132 13.7342L14.9383 13.7523V11.0996C14.9383 9.63294 14.9655 8.41072 15.0017 8.38355C15.0288 8.34734 16.7762 8.32923 18.8675 8.33829L22.6791 8.36545V11.0362ZM32.3663 11.0362V13.707L28.4371 13.7342C25.3499 13.7523 24.4898 13.7342 24.4264 13.6436C24.3087 13.4445 24.3359 8.55557 24.4626 8.42882C24.5441 8.34734 25.5128 8.32018 28.4733 8.33829L32.3663 8.36545V11.0362ZM13.2 18.1704L13.2181 20.814L7.45105 20.7959L1.6749 20.7688L1.64774 18.2338C1.63869 16.8395 1.64774 15.6535 1.6749 15.5902C1.70206 15.4906 2.87902 15.4725 7.44199 15.4906L13.1729 15.5177L13.2 18.1704ZM13.1729 25.3861V28.1927L8.87245 28.2198C4.03787 28.247 3.4675 28.2108 2.8247 27.7671C2.60741 27.6223 2.3177 27.3326 2.17284 27.1334C1.72017 26.5178 1.62963 26.0017 1.62963 24.1729V22.5342L7.40578 22.5523L13.1729 22.5795V25.3861Z" fill="#5FD5EC"/>
<path d="M27.5229 17.9803C24.653 18.4601 22.8694 19.3836 20.941 21.3935C19.2661 23.1227 18.3336 25.0239 17.9715 27.4593C17.7542 28.9079 17.8447 30.4198 18.2431 31.9408C18.5418 33.0997 19.1665 34.4577 19.8093 35.3268C20.3254 36.033 21.62 37.3639 22.2719 37.8709C24.1279 39.2923 26.518 40.089 28.9443 40.098C30.1847 40.098 31.1715 39.9351 32.5386 39.4914C35.0736 38.6676 37.6267 36.4404 38.867 33.9778C39.6818 32.3573 40.0711 30.4741 39.9896 28.5548C39.8629 25.6305 38.8579 23.3219 36.7937 21.2305C34.6028 19.0033 31.923 17.8988 28.8448 17.926C28.2382 17.935 27.6497 17.9622 27.5229 17.9803ZM29.8316 19.6461C31.9773 19.8634 33.3262 20.4247 34.9468 21.7828C35.6983 22.4074 36.1781 22.9416 36.7847 23.8107C38.36 26.0651 38.7855 29.433 37.8258 32.1309C37.3641 33.4527 36.6489 34.5663 35.6258 35.5984C33.9147 37.3186 32.1493 38.1696 29.8316 38.3688C28.8538 38.4503 27.3419 38.3507 26.5723 38.1515C25.7575 37.9433 24.5534 37.4091 23.8834 36.9565C23.132 36.4676 21.9188 35.3359 21.3756 34.6388C20.6785 33.7334 20.0357 32.321 19.7279 31.0445C19.5649 30.3655 19.5558 27.6404 19.7188 26.9704C20.1896 25.0782 21.0316 23.5935 22.4168 22.2445C23.2316 21.4659 23.476 21.2667 24.1279 20.8955C25.7032 19.9992 26.2192 19.8453 28.7452 19.5556C28.7995 19.5465 29.2884 19.5918 29.8316 19.6461Z" fill="#5FD5EC"/>
<path d="M32.9092 25.3589C32.8096 25.4132 32.6828 25.5309 32.6195 25.6033C32.5289 25.7301 30.6458 28.3284 29.3783 30.0848C27.8483 32.2033 27.7668 32.312 27.5585 32.312C27.4952 32.312 26.8071 31.6601 26.0194 30.8634C24.6795 29.5144 24.5528 29.4148 24.245 29.4148C23.8194 29.4148 23.4482 29.8222 23.4482 30.284C23.4482 30.5646 23.6022 30.7548 24.8696 32.0947C25.6754 32.9457 26.445 33.67 26.6441 33.7786C27.0787 33.9959 27.975 34.0231 28.4277 33.8239C28.9437 33.5976 28.9166 33.6338 32.1215 29.1523C34.1042 26.3819 34.1495 26.3185 34.1042 25.9473C34.0228 25.3589 33.4252 25.0601 32.9092 25.3589Z" fill="#5FD5EC"/>
</svg>
