<svg width="42" height="42" viewBox="0 0 42 42" fill="none" xmlns="http://www.w3.org/2000/svg">
<circle cx="21" cy="21" r="21" fill="#8282BE"/>
<path d="M12.7243 20.8404C17.1315 18.9202 20.0707 17.654 21.5418 17.0419C25.7409 15.2956 26.6129 14.9923 27.1815 14.9822C27.3075 14.9797 27.5864 15.0108 27.7679 15.1586C27.9207 15.2821 27.9627 15.4501 27.9829 15.5677C28.0031 15.6853 28.0283 15.9533 28.0081 16.1624C27.7813 18.5539 26.796 24.3558 26.2945 27.0337C26.0828 28.166 25.6662 28.5457 25.2613 28.5835C24.3835 28.6642 23.7174 28.0039 22.8673 27.4462C21.5359 26.5734 20.7841 26.0299 19.4922 25.179C17.9995 24.1954 18.9672 23.6544 19.8181 22.7707C20.0407 22.5397 23.9089 19.021 23.9845 18.7018C23.9929 18.6614 24.0021 18.5128 23.9139 18.4346C23.8257 18.3557 23.6955 18.3826 23.6006 18.4044C23.4668 18.4346 21.341 19.8397 17.2233 22.6195C16.6191 23.0339 16.0725 23.2358 15.5837 23.2252C15.0435 23.2134 14.0045 22.9202 13.2333 22.6691C12.2858 22.3608 11.5332 22.1987 11.5987 21.6754C11.6329 21.4032 12.0081 21.1249 12.7243 20.8404Z" fill="#F5F9FF"/>
</svg>
